<svg width="206" height="44" viewBox="0 0 206 44" fill="none" xmlns="http://www.w3.org/2000/svg">
<path d="M62.5586 35.3016C60.8133 35.3016 59.1813 34.9843 57.6626 34.3496C56.1666 33.7149 54.852 32.8423 53.7186 31.7316C52.5853 30.5983 51.7013 29.2836 51.0666 27.7876C50.4546 26.2689 50.1486 24.6483 50.1486 22.9256C50.1486 21.2029 50.4546 19.6049 51.0666 18.1316C51.7013 16.6356 52.574 15.3323 53.6846 14.2216C54.818 13.0883 56.1326 12.2156 57.6286 11.6036C59.1246 10.9689 60.7453 10.6516 62.4906 10.6516C64.236 10.6516 65.8566 10.9689 67.3526 11.6036C68.8486 12.2156 70.1633 13.0883 71.2966 14.2216C72.43 15.3323 73.3026 16.6356 73.9146 18.1316C74.5493 19.6276 74.8666 21.2369 74.8666 22.9596C74.8666 24.6823 74.5493 26.2916 73.9146 27.7876C73.3026 29.2836 72.43 30.5983 71.2966 31.7316C70.186 32.8423 68.8826 33.7149 67.3866 34.3496C65.8906 34.9843 64.2813 35.3016 62.5586 35.3016ZM73.3366 36.6956L62.3886 25.7476L65.1766 22.9256L76.1586 33.9076L73.3366 36.6956ZM62.4906 30.9836C64.0093 30.9836 65.3353 30.6436 66.4686 29.9636C67.6246 29.2836 68.52 28.3429 69.1546 27.1416C69.812 25.9403 70.1406 24.5349 70.1406 22.9256C70.1406 21.7469 69.948 20.6703 69.5626 19.6956C69.2 18.7209 68.6786 17.8823 67.9986 17.1796C67.3186 16.4543 66.514 15.8989 65.5846 15.5136C64.6553 15.1283 63.624 14.9356 62.4906 14.9356C60.9946 14.9356 59.6686 15.2756 58.5126 15.9556C57.3793 16.6129 56.484 17.5423 55.8266 18.7436C55.192 19.9449 54.8746 21.3389 54.8746 22.9256C54.8746 24.1269 55.056 25.2263 55.4186 26.2236C55.804 27.2209 56.3253 28.0709 56.9826 28.7736C57.6626 29.4763 58.4673 30.0203 59.3966 30.4056C60.3486 30.7909 61.38 30.9836 62.4906 30.9836ZM85.7572 35.2676C84.3066 35.2676 83.0146 34.9616 81.8813 34.3496C80.7706 33.7376 79.8979 32.8876 79.2633 31.7996C78.6286 30.7116 78.3113 29.4536 78.3113 28.0256V18.5056H82.7993V27.9236C82.7993 28.6036 82.9126 29.1929 83.1393 29.6916C83.3659 30.1676 83.7059 30.5303 84.1593 30.7796C84.6126 31.0289 85.1453 31.1536 85.7572 31.1536C86.6866 31.1536 87.4119 30.8703 87.9333 30.3036C88.4546 29.7369 88.7153 28.9436 88.7153 27.9236V18.5056H93.1693V28.0256C93.1693 29.4763 92.8519 30.7456 92.2173 31.8336C91.6053 32.9216 90.7326 33.7716 89.5993 34.3836C88.4886 34.9729 87.2079 35.2676 85.7572 35.2676ZM96.7161 34.9276V18.5056H101.204V34.9276H96.7161ZM98.9601 15.8536C98.2348 15.8536 97.6341 15.6156 97.1581 15.1396C96.6821 14.6409 96.4441 14.0289 96.4441 13.3036C96.4441 12.6009 96.6821 12.0003 97.1581 11.5016C97.6341 11.0029 98.2348 10.7536 98.9601 10.7536C99.7081 10.7536 100.309 11.0029 100.762 11.5016C101.238 12.0003 101.476 12.6009 101.476 13.3036C101.476 14.0289 101.238 14.6409 100.762 15.1396C100.309 15.6156 99.7081 15.8536 98.9601 15.8536ZM112.902 35.2676C111.224 35.2676 109.717 34.8936 108.38 34.1456C107.042 33.3976 105.988 32.3776 105.218 31.0856C104.447 29.7936 104.062 28.3429 104.062 26.7336C104.062 25.1016 104.447 23.6396 105.218 22.3476C105.988 21.0556 107.042 20.0356 108.38 19.2876C109.74 18.5169 111.247 18.1316 112.902 18.1316C114.194 18.1316 115.384 18.3696 116.472 18.8456C117.56 19.3216 118.5 20.0016 119.294 20.8856L116.438 23.7756C116.007 23.2996 115.486 22.9369 114.874 22.6876C114.284 22.4383 113.627 22.3136 112.902 22.3136C112.086 22.3136 111.349 22.5063 110.692 22.8916C110.057 23.2543 109.547 23.7643 109.162 24.4216C108.799 25.0563 108.618 25.8156 108.618 26.6996C108.618 27.5609 108.799 28.3316 109.162 29.0116C109.547 29.6689 110.057 30.1903 110.692 30.5756C111.349 30.9383 112.086 31.1196 112.902 31.1196C113.65 31.1196 114.318 30.9949 114.908 30.7456C115.52 30.4736 116.041 30.0883 116.472 29.5896L119.362 32.4796C118.523 33.3863 117.56 34.0776 116.472 34.5536C115.384 35.0296 114.194 35.2676 112.902 35.2676ZM132.356 34.9276L125.998 26.4616L132.322 18.5056H137.456L130.044 27.4816L130.214 25.3056L137.796 34.9276H132.356ZM121.884 34.9276V10.3456H126.338V34.9276H121.884ZM148.959 35.2676C147.78 35.2676 146.715 35.0183 145.763 34.5196C144.811 34.0209 144.052 33.3409 143.485 32.4796C142.918 31.6183 142.612 30.6549 142.567 29.5896V23.7416C142.612 22.6763 142.918 21.7243 143.485 20.8856C144.074 20.0243 144.845 19.3556 145.797 18.8796C146.749 18.4036 147.803 18.1656 148.959 18.1656C150.478 18.1656 151.838 18.5396 153.039 19.2876C154.24 20.0356 155.181 21.0556 155.861 22.3476C156.564 23.6396 156.915 25.1016 156.915 26.7336C156.915 28.3429 156.564 29.7936 155.861 31.0856C155.181 32.3776 154.24 33.3976 153.039 34.1456C151.838 34.8936 150.478 35.2676 148.959 35.2676ZM139.847 34.9276V10.3456H144.301V22.5516L143.553 26.4956L144.267 30.5076V34.9276H139.847ZM148.211 31.1536C149.027 31.1536 149.741 30.9723 150.353 30.6096C150.988 30.2243 151.475 29.7029 151.815 29.0456C152.178 28.3656 152.359 27.5836 152.359 26.6996C152.359 25.8383 152.178 25.0789 151.815 24.4216C151.475 23.7416 150.988 23.2203 150.353 22.8576C149.718 22.4723 148.993 22.2796 148.177 22.2796C147.361 22.2796 146.636 22.4723 146.001 22.8576C145.389 23.2203 144.902 23.7416 144.539 24.4216C144.199 25.0789 144.029 25.8383 144.029 26.6996C144.029 27.5836 144.199 28.3656 144.539 29.0456C144.902 29.7029 145.4 30.2243 146.035 30.6096C146.67 30.9723 147.395 31.1536 148.211 31.1536ZM159.835 34.9276V10.3456H164.289V34.9276H159.835ZM175.954 35.2676C174.299 35.2676 172.803 34.8936 171.466 34.1456C170.151 33.3749 169.097 32.3436 168.304 31.0516C167.533 29.7369 167.148 28.2749 167.148 26.6656C167.148 25.0563 167.533 23.6169 168.304 22.3476C169.074 21.0556 170.128 20.0356 171.466 19.2876C172.803 18.5169 174.288 18.1316 175.92 18.1316C177.597 18.1316 179.093 18.5169 180.408 19.2876C181.745 20.0356 182.799 21.0556 183.57 22.3476C184.34 23.6169 184.726 25.0563 184.726 26.6656C184.726 28.2749 184.34 29.7369 183.57 31.0516C182.799 32.3436 181.745 33.3749 180.408 34.1456C179.093 34.8936 177.608 35.2676 175.954 35.2676ZM175.92 31.1196C176.758 31.1196 177.495 30.9383 178.13 30.5756C178.787 30.1903 179.286 29.6689 179.626 29.0116C179.988 28.3316 180.17 27.5609 180.17 26.6996C180.17 25.8383 179.988 25.0789 179.626 24.4216C179.263 23.7643 178.764 23.2543 178.13 22.8916C177.495 22.5063 176.758 22.3136 175.92 22.3136C175.104 22.3136 174.378 22.5063 173.744 22.8916C173.109 23.2543 172.61 23.7643 172.248 24.4216C171.885 25.0789 171.704 25.8383 171.704 26.6996C171.704 27.5609 171.885 28.3316 172.248 29.0116C172.61 29.6689 173.109 30.1903 173.744 30.5756C174.378 30.9383 175.104 31.1196 175.92 31.1196ZM194.461 42.2036C192.716 42.2036 191.174 41.8863 189.837 41.2516C188.5 40.6396 187.434 39.7669 186.641 38.6336L189.463 35.8116C190.098 36.5596 190.8 37.1263 191.571 37.5116C192.364 37.9196 193.316 38.1236 194.427 38.1236C195.81 38.1236 196.898 37.7723 197.691 37.0696C198.507 36.3669 198.915 35.3923 198.915 34.1456V30.0316L199.663 26.4276L198.949 22.8236V18.5056H203.369V34.0776C203.369 35.7096 202.984 37.1263 202.213 38.3276C201.465 39.5516 200.422 40.5036 199.085 41.1836C197.748 41.8636 196.206 42.2036 194.461 42.2036ZM194.257 34.4856C192.784 34.4856 191.458 34.1343 190.279 33.4316C189.1 32.7063 188.171 31.7203 187.491 30.4736C186.834 29.2269 186.505 27.8329 186.505 26.2916C186.505 24.7503 186.834 23.3676 187.491 22.1436C188.171 20.9196 189.1 19.9563 190.279 19.2536C191.458 18.5283 192.784 18.1656 194.257 18.1656C195.481 18.1656 196.558 18.4036 197.487 18.8796C198.439 19.3556 199.187 20.0129 199.731 20.8516C200.275 21.6676 200.57 22.6309 200.615 23.7416V28.9096C200.57 29.9976 200.264 30.9723 199.697 31.8336C199.153 32.6723 198.405 33.3296 197.453 33.8056C196.524 34.2589 195.458 34.4856 194.257 34.4856ZM195.141 30.4396C195.957 30.4396 196.66 30.2696 197.249 29.9296C197.861 29.5669 198.337 29.0796 198.677 28.4676C199.017 27.8329 199.187 27.1189 199.187 26.3256C199.187 25.5096 199.017 24.7956 198.677 24.1836C198.337 23.5716 197.861 23.0956 197.249 22.7556C196.66 22.3929 195.957 22.2116 195.141 22.2116C194.325 22.2116 193.611 22.3929 192.999 22.7556C192.387 23.0956 191.911 23.5829 191.571 24.2176C191.231 24.8296 191.061 25.5323 191.061 26.3256C191.061 27.0963 191.231 27.7989 191.571 28.4336C191.911 29.0456 192.387 29.5329 192.999 29.8956C193.611 30.2583 194.325 30.4396 195.141 30.4396Z" fill="black"/>
<path d="M19.9994 1.14537C31.0454 1.14537 39.9994 10.0744 39.9994 21.0897V35.0507C39.9994 36.6376 39.3673 38.1594 38.2421 39.2815C37.1169 40.4036 35.5907 41.034 33.9994 41.034H20.9994V32.2844C20.9994 30.288 21.1214 28.2198 22.1714 26.5205C22.9232 25.3028 23.9288 24.2605 25.12 23.4643C26.3112 22.6682 27.6602 22.1369 29.0754 21.9064L29.4584 21.8446C29.6163 21.7908 29.7534 21.689 29.8505 21.5537C29.9475 21.4183 29.9997 21.2561 29.9997 21.0897C29.9997 20.9233 29.9475 20.761 29.8505 20.6257C29.7534 20.4903 29.6163 20.3886 29.4584 20.3348L29.0754 20.273C27.0076 19.9361 25.0981 18.9601 23.6166 17.4826C22.135 16.0052 21.1562 14.101 20.8184 12.039L20.7564 11.657C20.7025 11.4996 20.6005 11.3629 20.4647 11.2661C20.329 11.1693 20.1663 11.1173 19.9994 11.1173C19.8326 11.1173 19.6699 11.1693 19.5341 11.2661C19.3984 11.3629 19.2964 11.4996 19.2424 11.657L19.1804 12.039C18.9494 13.4503 18.4166 14.7955 17.6182 15.9835C16.8199 17.1714 15.7746 18.1741 14.5534 18.9237C12.8494 19.9708 10.7754 20.0925 8.77344 20.0925H0.0234375C0.546438 9.54093 9.28944 1.14537 19.9994 1.14537Z" fill="#5044E5"/>
<path d="M0 22.0869H8.774C10.776 22.0869 12.85 22.2086 14.554 23.2556C15.886 24.0741 17.0072 25.1923 17.828 26.5205C18.878 28.2198 19 30.288 19 32.2844V41.034H6C4.4087 41.034 2.88258 40.4036 1.75736 39.2815C0.632141 38.1594 0 36.6376 0 35.0507L0 22.0869ZM40 3.13981C40 3.66876 39.7893 4.17605 39.4142 4.55008C39.0391 4.92411 38.5304 5.13424 38 5.13424C37.4696 5.13424 36.9609 4.92411 36.5858 4.55008C36.2107 4.17605 36 3.66876 36 3.13981C36 2.61085 36.2107 2.10356 36.5858 1.72953C36.9609 1.3555 37.4696 1.14537 38 1.14537C38.5304 1.14537 39.0391 1.3555 39.4142 1.72953C39.7893 2.10356 40 2.61085 40 3.13981Z" fill="#5044E5"/>
</svg>
